<svg width="50" height="50" fill="none" xmlns="http://www.w3.org/2000/svg"><g clip-path="url(#a)"><path fill-rule="evenodd" clip-rule="evenodd" d="m46.389 14.668-1.635 1.64a19.447 19.447 0 0 0-12.8-4.829c-3.177 0-6.354.82-9.077 2.277l6.899-6.923c.544.364 1.18.547 1.816.547.907 0 1.816-.364 2.541-1.094a3.64 3.64 0 0 0 0-5.193C33.406.363 32.5 0 31.592 0s-1.816.364-2.541 1.093c-1.18 1.276-1.362 3.097-.545 4.464l-8.715 8.746-1.634-1.64-4.448 4.464 1.634 1.64-8.897 8.928a3.268 3.268 0 0 0-1.816-.546c-.907 0-1.816.364-2.541 1.093a3.64 3.64 0 0 0 0 5.193c.727.637 1.634 1.003 2.541 1.003s1.816-.364 2.541-1.094c1.18-1.183 1.362-3.006.545-4.463l6.899-6.924c-3.63 7.016-2.814 15.762 2.541 21.956l-1.634 1.73 4.54 4.464 4.447-4.463-4.447-4.464-1.544 1.55c-5.265-6.196-5.537-15.123-1.09-21.683l.727.73 4.54-4.464-.817-.73c2.905-2.096 6.446-3.189 10.076-3.189 4.268 0 8.26 1.55 11.529 4.283l-1.634 1.549 4.54 4.464 4.447-4.464-4.447-4.556v-.002Zm-24.42 30.976-1.907 1.913-1.907-1.913 1.907-1.914 1.906 1.914ZM30.32 2.46a1.791 1.791 0 0 1 1.272-.547c.454 0 .907.183 1.271.547.727.73.727 1.823 0 2.55a1.79 1.79 0 0 1-1.271.547c-.454 0-.907-.183-1.272-.547-.726-.637-.726-1.822 0-2.55ZM5.9 32.068a1.791 1.791 0 0 1-1.272.547c-.454 0-.907-.183-1.271-.547-.363-.273-.545-.729-.545-1.276 0-.456.182-.91.545-1.276a1.784 1.784 0 0 1 1.271-.546c.455 0 .908.183 1.272.546.727.73.727 1.914 0 2.55v.002Zm12.165-12.845-1.906-1.914 1.906-1.913 1.906 1.913-1.906 1.914Zm28.323 1.913-1.906-1.913 1.907-1.914 1.906 1.913-1.907 1.914Z" fill="#333"/></g><defs><clipPath id="a"><path fill="#fff" d="M0 0h50v50H0z"/></clipPath></defs></svg>