<?xml version="1.0" encoding="utf-8"?><svg viewBox="0 0 50 51" xmlns="http://www.w3.org/2000/svg" xmlns:xlink="http://www.w3.org/1999/xlink"><style>:root>svg{display:none}:root>svg:target{display:block}</style><svg fill="none" viewBox="0 0 35 35" id="arrow-left" xmlns="http://www.w3.org/2000/svg"><path fill-rule="evenodd" clip-rule="evenodd" d="M34.83 18.601H5.125l14.27 14.341-1.641 1.65L.68 17.435 17.756.275l1.642 1.65L5.125 16.268H34.83v2.333Z" fill="#333"/></svg><svg fill="none" viewBox="0 0 35 35" id="arrow-right" xmlns="http://www.w3.org/2000/svg"><g clip-path="url(#ba)"><path fill-rule="evenodd" clip-rule="evenodd" d="M34.15 17.435 17.073 34.594l-1.642-1.65 14.27-14.34H0V16.27h29.705L15.432 1.925l1.641-1.65 17.076 17.16Z" fill="#333"/></g><defs><clipPath id="ba"><path fill="#fff" d="M0 0h35v35H0z"/></clipPath></defs></svg><svg fill="none" viewBox="0 0 50 50" id="design-logo" xmlns="http://www.w3.org/2000/svg"><g clip-path="url(#ca)"><path fill-rule="evenodd" clip-rule="evenodd" d="m46.389 14.668-1.635 1.64a19.447 19.447 0 0 0-12.8-4.829c-3.177 0-6.354.82-9.077 2.277l6.899-6.923c.544.364 1.18.547 1.816.547.907 0 1.816-.364 2.541-1.094a3.64 3.64 0 0 0 0-5.193C33.406.363 32.5 0 31.592 0s-1.816.364-2.541 1.093c-1.18 1.276-1.362 3.097-.545 4.464l-8.715 8.746-1.634-1.64-4.448 4.464 1.634 1.64-8.897 8.928a3.268 3.268 0 0 0-1.816-.546c-.907 0-1.816.364-2.541 1.093a3.64 3.64 0 0 0 0 5.193c.727.637 1.634 1.003 2.541 1.003s1.816-.364 2.541-1.094c1.18-1.183 1.362-3.006.545-4.463l6.899-6.924c-3.63 7.016-2.814 15.762 2.541 21.956l-1.634 1.73 4.54 4.464 4.447-4.463-4.447-4.464-1.544 1.55c-5.265-6.196-5.537-15.123-1.09-21.683l.727.73 4.54-4.464-.817-.73c2.905-2.096 6.446-3.189 10.076-3.189 4.268 0 8.26 1.55 11.529 4.283l-1.634 1.549 4.54 4.464 4.447-4.464-4.447-4.556v-.002Zm-24.42 30.976-1.907 1.913-1.907-1.913 1.907-1.914 1.906 1.914ZM30.32 2.46a1.791 1.791 0 0 1 1.272-.547c.454 0 .907.183 1.271.547.727.73.727 1.823 0 2.55a1.79 1.79 0 0 1-1.271.547c-.454 0-.907-.183-1.272-.547-.726-.637-.726-1.822 0-2.55ZM5.9 32.068a1.791 1.791 0 0 1-1.272.547c-.454 0-.907-.183-1.271-.547-.363-.273-.545-.729-.545-1.276 0-.456.182-.91.545-1.276a1.784 1.784 0 0 1 1.271-.546c.455 0 .908.183 1.272.546.727.73.727 1.914 0 2.55v.002Zm12.165-12.845-1.906-1.914 1.906-1.913 1.906 1.913-1.906 1.914Zm28.323 1.913-1.906-1.913 1.907-1.914 1.906 1.913-1.907 1.914Z" fill="#333"/></g><defs><clipPath id="ca"><path fill="#fff" d="M0 0h50v50H0z"/></clipPath></defs></svg><svg fill="none" viewBox="0 0 50 50" id="development-logo" xmlns="http://www.w3.org/2000/svg"><path fill-rule="evenodd" clip-rule="evenodd" d="M46.658 35.83V5.842H3.34V35.83h20.825v6.664h-5.832v1.666h13.329v-1.666H25.83V35.83h20.828ZM5.008 7.506h39.984v26.657H5.008V7.506Z" fill="#333"/></svg><svg fill="none" viewBox="0 0 50 51" id="marketing-logo" xmlns="http://www.w3.org/2000/svg"><path fill-rule="evenodd" clip-rule="evenodd" d="M.557 19.525v11.443h4.905v9.808h1.634v-9.808H19.67l11.939 9.661V9.572l-12.015 9.953H.558Zm1.636 9.807V21.16h6.538v8.172H2.193Zm18.444-8.548 9.336-7.736v24.155l-9.726-7.87h-9.883v-8.172h9.818l.453-.375.002-.002Zm22.283-9.772-1.175 1.176c3.825 2.994 6.298 7.642 6.298 12.865 0 5.363-2.608 10.117-6.61 13.098l1.184 1.184c4.291-3.285 7.061-8.46 7.061-14.282 0-5.681-2.64-10.746-6.756-14.04h-.001Z" fill="#333"/><path fill-rule="evenodd" clip-rule="evenodd" d="M37.669 16.282 36.48 17.47c2.523 1.595 4.208 4.4 4.208 7.6 0 3.34-1.835 6.254-4.547 7.804l1.191 1.191c2.994-1.88 4.992-5.2 4.992-8.995a10.61 10.61 0 0 0-4.655-8.788h-.001Z" fill="#333"/></svg><svg fill="none" viewBox="0 0 26 43" id="mouse" xmlns="http://www.w3.org/2000/svg"><path fill-rule="evenodd" clip-rule="evenodd" d="M13 14a3 3 0 1 0 0-6 3 3 0 0 0 0 6Z" fill="#fff"/><rect x="1" y="1" width="24" height="41" rx="12" stroke="#fff" stroke-width="2"/></svg></svg>